# Blender v2.69 (sub 0) OBJ File: 'cat2.blend'
# www.blender.org
mtllib box.mtl
o Cube.002_Cube.001
v -1.125068 -0.768705 0.956700
v -1.125068 -0.768705 -1.043301
v 0.874932 -0.768705 -1.043301
v 0.874932 -0.768705 0.956700
v -1.125068 1.231295 0.956700
v -1.125068 1.231295 -1.043301
v 0.874932 1.231295 -1.043301
v 0.874932 1.231295 0.956700
v -1.125068 1.231295 0.775737
v -1.125068 -0.768705 0.775737
v 0.874932 1.231295 0.775737
v 0.874932 -0.768705 0.775737
v -1.125068 1.231295 -0.884967
v 0.874932 -0.768705 -0.884967
v -1.125068 -0.768705 -0.884967
v 0.874932 1.231295 -0.884967
v 0.696697 1.231295 -1.043301
v 0.696697 -0.768705 -1.043301
v 0.696697 1.231295 0.956700
v 0.696697 -0.768705 0.956700
v 0.696697 -0.768705 0.775737
v 0.696697 1.231295 0.775737
v 0.696697 -0.768705 -0.884967
v 0.696697 1.231295 -0.884967
v -0.975024 -0.768705 -1.043301
v -0.975024 1.231295 0.956700
v -0.975024 1.231295 0.775737
v -0.975024 1.231295 -0.884967
v -0.975024 1.231295 -1.043301
v -0.975024 -0.768705 0.956700
v -0.975024 -0.768705 0.775737
v -0.975024 -0.768705 -0.884967
v 0.664724 -0.768705 -1.043301
v 0.664724 1.231295 0.956700
v 0.664724 1.231295 0.775737
v 0.664724 1.231295 -0.884967
v 0.664724 1.231295 -1.043301
v 0.664724 -0.768705 0.956700
v 0.664724 -0.768705 0.775737
v 0.664724 -0.768705 -0.884967
v -0.944952 -0.768705 -1.043301
v -0.944952 1.231295 0.956700
v -0.944952 1.231295 0.775737
v -0.944952 1.231295 -0.884967
v -0.944952 1.231295 -1.043301
v -0.944952 -0.768705 0.956700
v -0.944952 -0.768705 0.775737
v -0.944952 -0.768705 -0.884967
v -1.125068 1.231295 0.751092
v 0.874932 -0.768705 0.751092
v -1.125068 -0.768705 0.751092
v 0.874932 1.231295 0.751092
v 0.696697 -0.768705 0.751092
v 0.696697 1.231295 0.751092
v -0.975024 1.231295 0.751092
v -0.975024 -0.768705 0.751092
v 0.664724 -0.738705 0.751092
v 0.664724 1.201295 0.751092
v -0.944952 1.201295 0.751092
v -0.944952 -0.738705 0.751092
v -1.125068 1.231295 -0.852368
v 0.874932 -0.768705 -0.852368
v -1.125068 -0.768705 -0.852368
v 0.874932 1.231295 -0.852368
v 0.696697 -0.768705 -0.852368
v 0.696697 1.231295 -0.852368
v -0.975024 1.231295 -0.852368
v -0.975024 -0.768705 -0.852368
v 0.664724 -0.738705 -0.852368
v 0.664724 1.201295 -0.852368
v -0.944952 1.201295 -0.852368
v -0.944952 -0.738705 -0.852368
v -1.125068 1.031295 0.956700
v -1.125068 1.031295 -1.043301
v 0.874932 1.031295 -1.043301
v 0.874932 1.031295 0.956700
v -1.125068 1.031295 0.775737
v 0.874932 1.031295 0.775737
v -1.125068 1.031295 -0.884967
v 0.874932 1.031295 -0.884967
v 0.696697 1.031295 -1.043301
v 0.696697 1.031295 0.956700
v -0.975024 1.031295 0.956700
v -0.975024 1.031295 -1.043301
v 0.664724 1.031295 -1.043301
v 0.664724 1.031295 0.956700
v -0.944952 1.031295 0.956700
v -0.944952 1.031295 -1.043301
v 0.874932 1.031295 0.751092
v -1.125068 1.031295 0.751092
v -1.125068 1.031295 -0.852368
v 0.874932 1.031295 -0.852368
v -1.125068 1.014152 -1.043301
v 0.874932 1.014152 -1.043301
v 0.874932 1.014152 0.956700
v -1.125068 1.014152 0.775737
v 0.874932 1.014152 0.775737
v -1.125068 1.014152 -0.884967
v 0.874932 1.014152 -0.884967
v 0.696697 1.014152 -1.043301
v 0.696697 1.014152 0.956700
v -0.975024 1.014152 0.956700
v -0.975024 1.014152 -1.043301
v 0.664724 1.014152 -1.013301
v 0.664724 1.014152 0.926700
v -0.944952 1.014152 0.926700
v -0.944952 1.014152 -1.013301
v 0.844932 1.014152 0.751092
v -1.095068 1.014152 0.751092
v -1.095068 1.014152 -0.852368
v 0.844932 1.014152 -0.852368
v -1.125068 1.014152 0.956700
v -1.125068 -0.578303 -1.043301
v 0.874932 -0.578303 -1.043301
v 0.874932 -0.578303 0.956700
v -1.125068 -0.578303 0.775737
v 0.874932 -0.578303 0.775737
v -1.125068 -0.578303 -0.884967
v 0.874932 -0.578303 -0.884967
v 0.696697 -0.578303 -1.043301
v 0.696697 -0.578303 0.956700
v -0.975024 -0.578303 0.956700
v -0.975024 -0.578303 -1.043301
v 0.664724 -0.578303 -1.043301
v 0.664724 -0.578303 0.956700
v -0.944952 -0.578303 0.956700
v -0.944952 -0.578303 -1.043301
v 0.874932 -0.578303 0.751092
v -1.125068 -0.578303 0.751092
v -1.125068 -0.578303 -0.852368
v 0.874932 -0.578303 -0.852368
v -1.125068 -0.578303 0.956700
v -1.125068 -0.542383 -1.043301
v 0.874932 -0.542383 -1.043301
v 0.874932 -0.542383 0.956700
v -1.125068 -0.542383 0.775737
v 0.874932 -0.542383 0.775737
v -1.125068 -0.542383 -0.884967
v 0.874932 -0.542383 -0.884967
v 0.696697 -0.542383 -1.043301
v 0.696697 -0.542383 0.956700
v -0.975024 -0.542383 0.956700
v -0.975024 -0.542383 -1.043301
v 0.664724 -0.542383 -1.013301
v 0.664724 -0.542383 0.926700
v -0.944952 -0.542383 0.926700
v -0.944952 -0.542383 -1.013301
v 0.844932 -0.542383 0.751092
v -1.095068 -0.542383 0.751092
v -1.095068 -0.542383 -0.852368
v 0.844932 -0.542383 -0.852368
v -1.125068 -0.542383 0.956700
vt 0.100092 0.914544
vt 0.100113 0.992215
vt 0.006505 0.914491
vt 0.901887 0.898062
vt 0.989421 0.898062
vt 0.901887 0.991571
vt 0.089882 0.111581
vt -0.000082 0.111265
vt 0.090116 0.016511
vt 0.081257 0.104094
vt 0.007569 0.104093
vt 0.081258 0.010586
vt 0.901837 0.087112
vt 0.901837 0.009351
vt 0.989371 0.087112
vt 0.079711 0.915092
vt 0.079713 0.992852
vt 0.006023 0.915093
vt 0.104180 0.004904
vt 0.104636 0.094931
vt 0.009447 0.005118
vt 0.102380 0.111622
vt 0.102421 0.016535
vt 0.901837 0.991581
vt 0.901837 0.902708
vt 0.989371 0.991582
vt 0.079693 0.010622
vt 0.079695 0.099495
vt 0.006004 0.010623
vt 0.100084 0.898552
vt 0.006510 0.898463
vt 0.901838 0.103122
vt 0.989371 0.103122
vt 0.079711 0.899082
vt 0.006022 0.899083
vt 0.986897 0.107190
vt 0.909215 0.107156
vt 0.986955 0.013591
vt 0.886185 0.898062
vt 0.886185 0.991571
vt 0.989793 0.104092
vt 0.902261 0.104092
vt 0.989793 0.010585
vt 0.886135 0.087112
vt 0.886135 0.009352
vt 0.988250 0.915074
vt 0.988251 0.992833
vt 0.900717 0.915074
vt 0.886134 0.991581
vt 0.886134 0.902708
vt 0.988253 0.010613
vt 0.988254 0.099491
vt 0.900714 0.010614
vt 0.881961 0.102385
vt 0.891850 0.083470
vt 0.906814 0.087128
vt 0.988250 0.899064
vt 0.900717 0.899064
vt 0.096025 0.104094
vt 0.096026 0.010586
vt 0.094480 0.915092
vt 0.094482 0.992852
vt 0.094462 0.010621
vt 0.094463 0.099495
vt 0.103459 0.884520
vt 0.093338 0.903313
vt 0.079264 0.899872
vt 0.007191 0.898063
vt 0.080880 0.898062
vt 0.007191 0.991572
vt 0.007131 0.087117
vt 0.007131 0.009355
vt 0.080822 0.087117
vt 0.007141 0.991581
vt 0.007141 0.902708
vt 0.080830 0.991580
vt 0.007131 0.103127
vt 0.080822 0.103128
vt 0.095648 0.898063
vt 0.095649 0.991572
vt 0.095592 0.087117
vt 0.095592 0.009355
vt 0.095598 0.991580
vt 0.095598 0.902708
vt 0.106434 0.102386
vt 0.106434 0.081041
vt 0.886560 0.104093
vt 0.902261 0.010586
vt 0.900718 0.992834
vt 0.885015 0.915075
vt 0.900716 0.099492
vt 0.885011 0.010614
vt 0.897742 0.890597
vt 0.894049 0.905863
vt 0.878977 0.880898
vt 0.886559 0.010586
vt 0.885016 0.992834
vt 0.885012 0.099493
vt 0.879077 0.902242
vt 0.080880 0.991572
vt 0.080822 0.009355
vt 0.080829 0.902708
vt 0.085969 0.102385
vt 0.082169 0.087146
vt 0.893224 0.107145
vt 0.893122 0.013565
vt 0.104674 0.107430
vt 0.009589 0.095091
vt 0.901837 0.890604
vt 0.989371 0.902708
vt 0.079695 0.111599
vt 0.006006 0.099497
vt 0.881962 0.893619
vt 0.881962 0.874916
vt 0.896851 0.897560
vt 0.988254 0.111595
vt 0.099763 0.093294
vt 0.099851 0.111997
vt 0.085793 0.089461
vt 0.007141 0.890604
vt 0.106436 0.893623
vt 0.106436 0.874917
vt 0.899929 0.096911
vt 0.896491 0.108277
vt 0.875368 0.108375
vt 0.875281 0.089670
vt 0.082410 0.886245
vt 0.085972 0.874918
vt 0.009607 0.107393
vt 0.989371 0.890604
vt 0.006006 0.111601
vt 0.903084 0.874916
vt 0.900717 0.111597
vt 0.079387 0.112093
vt 0.080829 0.890604
vt 0.900100 0.880799
vt 0.909150 0.013558
vt 0.986270 0.914563
vt 0.986256 0.992278
vt 0.888047 0.914622
vt 0.901896 0.009347
vt 0.989433 0.009348
vt 0.901896 0.107575
vt 0.090326 0.992047
vt 0.000318 0.992324
vt 0.089883 0.892013
vt 0.081248 0.992821
vt 0.007556 0.992821
vt 0.081248 0.894594
vt 0.985310 0.006075
vt 0.985083 0.096270
vt 0.885626 0.005824
vt 0.102649 0.991998
vt 0.102479 0.891933
vt 0.986265 0.898553
vt 0.888042 0.898638
vt 0.986652 0.993354
vt 0.908930 0.993384
vt 0.986614 0.895178
vt 0.886193 0.009347
vt 0.886192 0.107575
vt 0.989801 0.992811
vt 0.902267 0.992812
vt 0.989800 0.894587
vt 0.096017 0.992821
vt 0.096017 0.894594
vt 0.007182 0.009348
vt 0.080873 0.009347
vt 0.007184 0.107573
vt 0.095643 0.009347
vt 0.095644 0.107572
vt 0.886564 0.992812
vt 0.902266 0.894588
vt 0.886563 0.894588
vt 0.080874 0.107572
vt 0.892916 0.993379
vt 0.893002 0.895140
vt 0.985023 0.108603
vt 0.884994 0.095697
vt 0.884915 0.108294
vt 0.908986 0.895149
vt 0.888060 0.992253
vt 0.879642 0.914621
vt 0.989432 0.107575
vt 0.901896 0.115994
vt -0.000057 0.892720
vt 0.089729 0.883349
vt 0.007557 0.894594
vt 0.081248 0.886175
vt 0.877114 0.005770
vt 0.108277 0.895016
vt 0.097008 0.898758
vt 0.108277 0.878370
vt 0.884170 0.117092
vt 0.898770 0.122880
vt 0.874382 0.130558
vt 0.986616 0.886774
vt 0.100951 0.102362
vt 0.106609 0.088034
vt 0.114386 0.112191
vt 0.989799 0.886168
vt 0.094797 0.906759
vt 0.080833 0.910621
vt 0.094797 0.890112
vt 0.007184 0.115992
vt 0.101224 0.887781
vt 0.097739 0.112266
vt 0.117873 0.887706
vt 0.885225 0.910655
vt 0.870319 0.906761
vt 0.870319 0.890112
vt 0.097424 0.901764
vt 0.880805 0.895018
vt 0.880805 0.878369
vt 0.090583 0.110166
vt 0.101854 0.113907
vt 0.101854 0.130557
vt 0.874382 0.113911
vt 0.905193 0.886047
vt 0.890592 0.891835
vt 0.117721 0.914523
vt 0.117736 0.992203
vt 0.901887 0.880420
vt 0.989421 0.880421
vt 0.089568 0.129770
vt -0.000132 0.129114
vt 0.081257 0.121735
vt 0.007568 0.121734
vt 0.122040 0.004837
vt 0.122823 0.094639
vt 0.108277 0.128449
vt 0.089569 0.128449
vt 0.085555 0.111613
vt 0.874381 0.880478
vt 0.895728 0.880478
vt 0.899500 0.897370
vt 0.986880 0.124817
vt 0.909190 0.124789
vt 0.864298 0.108819
vt 0.873478 0.089795
vt 0.890335 0.093713
vt 0.989793 0.121733
vt 0.902261 0.121732
vt 0.094797 0.140191
vt 0.074329 0.140191
vt 0.070464 0.123321
vt 0.007191 0.880422
vt 0.080880 0.880421
vt 0.867786 0.884334
vt 0.890334 0.884233
vt 0.891446 0.140191
vt 0.870320 0.140191
vt 0.895242 0.123305
vt 0.870320 0.117643
vt 0.867878 0.904801
vt 0.884766 0.908591
vt 0.880804 0.128449
vt 0.880804 0.105900
vt 0.083145 0.880477
vt 0.101853 0.880477
vt 0.079132 0.897313
vt 0.101853 0.903026
vt 0.902152 0.128449
vt 0.905923 0.111557
vt 0.879655 0.992252
vt 0.989432 0.115994
vt -0.000115 0.884203
vt 0.007557 0.886175
vt 0.876332 0.095538
vt 0.089571 0.878370
vt 0.895726 0.130558
vt 0.908988 0.886744
vt 0.114291 0.091068
vt 0.902265 0.886169
vt 0.074331 0.890112
vt 0.080874 0.115992
vt 0.891442 0.890112
vt 0.117965 0.908171
vt 0.083147 0.130557
vt 0.902149 0.878370
vt 0.006563 0.992284
vt 0.989421 0.991571
vt -0.000007 0.016440
vt 0.007570 0.010585
vt 0.989371 0.009351
vt 0.006024 0.992853
vt 0.903084 0.102385
vt 0.082994 0.884616
vt 0.881961 0.081042
vt 0.103559 0.905863
vt 0.096227 0.083640
vt 0.899889 0.886083
vt 0.082652 0.100910
vt 0.885184 0.092452
vt 0.096229 0.890592
vt 0.094406 0.890919
vt 0.078631 0.902661
vt 0.887313 0.902663
vt 0.105395 0.903931
vt 0.087980 0.118006
vt 0.097107 0.108859
vt 0.884169 0.900793
vt 0.886846 0.108717
vt 0.084587 0.120084
vt 0.880211 0.119926
vt 0.094797 0.117643
vt 0.887938 0.894453
vt 0.108277 0.105901
vt 0.090684 0.900067
vt 0.874381 0.903026
vt 0.890593 0.108134
vt 0.864204 0.087693
vn -0.990173 0.100040 0.097659
vn -0.707083 0.000000 -0.707083
vn -0.707083 -0.707083 0.000000
vn -0.098148 0.101016 -0.990020
vn 0.707083 0.000000 -0.707083
vn 0.000000 -0.707083 -0.707083
vn 0.988128 0.113346 -0.103671
vn 0.707083 0.000000 0.707083
vn 0.707083 -0.707083 0.000000
vn 0.099612 0.104038 0.989563
vn -0.707083 0.000000 0.707083
vn 0.000000 -0.707083 0.707083
vn -0.103549 -0.989135 0.104038
vn 0.105228 0.988617 0.107303
vn 0.000000 0.707083 -0.707083
vn -0.707083 0.707083 0.000000
vn -0.988128 0.113346 -0.103671
vn -0.577349 -0.577349 0.577349
vn 0.940062 0.340922 0.000000
vn -0.118259 -0.986724 -0.111240
vn 0.577349 -0.577349 0.577349
vn 0.000000 0.707083 0.707083
vn 0.120640 0.985961 -0.115177
vn -0.577349 0.577349 0.577349
vn -0.940062 0.340922 0.000000
vn -0.367931 -0.929838 0.000000
vn 0.382122 0.924100 0.000000
vn 0.990173 0.100040 0.097659
vn 0.577349 -0.577349 -0.577349
vn 0.000000 0.340922 -0.940062
vn -0.098148 0.101016 0.990020
vn 0.000000 -0.931608 0.363414
vn 0.707083 0.707083 0.000000
vn 0.577349 0.577349 -0.577349
vn -0.103549 0.989135 0.104038
vn 0.000000 -0.904080 -0.427320
vn 0.577349 0.577349 0.577349
vn -0.288247 -0.914609 0.283425
vn -0.367931 0.929838 0.000000
vn 0.000000 0.340922 0.940062
vn 0.000000 0.931608 0.363414
vn 0.000000 0.904080 -0.427320
vn 0.301889 0.910703 0.281869
vn 0.099612 0.104038 -0.989563
vn -0.577349 -0.577349 -0.577349
vn 0.105228 -0.988617 0.107303
vn 0.382122 -0.924100 0.000000
vn 0.301889 -0.910703 0.281869
vn -0.118259 0.986724 -0.111240
vn -0.288247 0.914609 0.283425
vn 0.120640 -0.985961 -0.115177
vn -0.281961 -0.895047 -0.345439
vn 0.295267 0.891476 -0.343577
vn 0.295267 -0.891476 -0.343577
vn -0.281961 0.895047 -0.345439
vn -0.577349 0.577349 -0.577349
vn -0.984222 -0.115970 0.133457
vn -0.134526 -0.117435 -0.983917
vn 0.979522 -0.136692 -0.147710
vn 0.137883 -0.122013 0.982879
vn 0.864895 -0.501907 0.000000
vn -0.864895 -0.501907 0.000000
vn 0.000000 -0.501907 -0.864895
vn 0.000000 -0.501907 0.864895
vn -0.134526 -0.117435 0.983917
vn 0.137883 -0.122013 -0.982879
vn -0.979522 -0.136692 -0.147710
vn 0.984222 -0.115970 0.133457
vn -0.931608 0.000000 0.363414
vn -0.367931 0.000000 -0.929838
vn 0.904080 0.000000 -0.427320
vn 0.382122 0.000000 0.924100
vn 0.848476 -0.411786 -0.332377
vn -0.864895 -0.420789 0.273568
vn -0.277657 -0.420087 -0.863948
vn 0.290536 -0.417951 0.860714
vn 0.290536 -0.417951 -0.860714
vn -0.277657 -0.420087 0.863948
vn 0.864895 -0.420789 0.273568
vn -0.848476 -0.411786 -0.332377
vn -0.904080 0.000000 -0.427320
vn 0.901059 0.256996 -0.349254
vn -0.921293 0.262612 0.286691
vn 0.931608 0.000000 0.363414
vn -0.291025 0.262123 -0.920072
vn -0.367931 0.000000 0.929838
vn 0.304788 0.260720 0.916013
vn 0.382122 0.000000 -0.924100
vn 0.304788 0.260720 -0.916013
vn -0.291025 0.262123 0.920072
vn 0.921293 0.262612 0.286691
vn -0.901059 0.256996 -0.349254
usemtl Material.005
s 1
f 118/1/1 113/2/2 15/3/3
f 120/4/4 114/5/5 18/6/6
f 117/7/7 115/8/8 12/9/9
f 122/10/10 132/11/11 30/12/12
f 23/13/13 18/14/6 14/15/9
f 28/16/14 29/17/15 13/18/16
f 132/19/11 116/20/17 1/21/18
f 128/22/19 117/7/7 50/23/9
f 20/24/12 21/25/20 4/26/21
f 26/27/22 27/28/23 5/29/24
f 130/30/25 118/1/1 63/31/3
f 65/32/26 23/13/13 62/33/9
f 67/34/27 28/16/14 61/35/16
f 114/36/5 119/37/28 3/38/29
f 124/39/30 120/4/4 33/40/6
f 115/41/8 121/42/31 4/43/21
f 40/44/32 33/45/6 23/13/13
f 16/46/33 7/47/34 24/48/35
f 38/49/12 39/50/36 20/24/12
f 8/51/37 11/52/33 19/53/22
f 69/54/38 40/55/32 23/56/13
f 64/57/33 16/46/33 66/58/39
f 126/59/40 122/10/10 46/60/12
f 44/61/41 45/62/15 28/16/14
f 42/63/22 43/64/42 26/27/22
f 71/65/43 44/66/41 28/67/14
f 113/68/2 123/69/44 2/70/45
f 15/71/3 2/72/45 32/73/46
f 1/74/18 10/75/3 30/76/12
f 63/77/3 15/71/3 68/78/47
f 127/79/30 124/39/30 41/80/6
f 48/81/32 41/82/6 40/44/32
f 46/83/12 47/84/36 38/49/12
f 72/85/48 48/86/32 69/54/38
f 121/42/31 125/87/40 20/88/12
f 24/48/35 17/89/15 36/90/41
f 19/53/22 22/91/49 34/92/22
f 66/93/39 24/94/35 70/95/50
f 125/87/40 126/59/40 38/96/12
f 36/90/41 37/97/15 44/61/41
f 34/92/22 35/98/42 42/63/22
f 70/95/50 36/99/41 71/65/43
f 123/69/44 127/79/30 25/100/6
f 32/73/46 25/101/6 48/81/32
f 30/76/12 31/102/51 46/83/12
f 68/103/47 32/104/46 72/85/48
f 131/105/19 128/22/19 62/106/9
f 116/20/17 129/107/25 10/108/3
f 21/25/20 53/109/26 12/110/9
f 27/28/23 55/111/27 9/112/16
f 39/113/36 57/114/52 21/115/20
f 11/52/33 52/116/33 22/91/49
f 43/117/42 59/118/53 27/119/23
f 10/75/3 51/120/3 31/102/51
f 47/121/36 60/122/54 39/113/36
f 22/123/49 54/124/39 58/125/55
f 35/126/42 58/125/55 43/117/42
f 31/127/51 56/128/47 60/122/54
f 129/107/25 130/30/25 51/129/3
f 53/109/26 65/32/26 50/130/9
f 55/111/27 67/34/27 49/131/16
f 57/114/52 69/54/38 53/132/26
f 52/116/33 64/57/33 54/133/39
f 59/118/53 71/65/43 55/134/27
f 51/120/3 63/77/3 56/135/47
f 60/122/54 72/85/48 57/114/52
f 54/124/39 66/136/39 58/125/55
f 58/125/55 70/95/50 59/118/53
f 56/128/47 68/103/47 60/122/54
f 119/37/28 131/105/19 14/137/9
f 13/138/16 6/139/56 79/140/57
f 17/141/15 7/142/34 81/143/58
f 11/144/33 8/145/37 78/146/59
f 26/147/22 5/148/24 83/149/60
f 5/150/24 9/151/16 73/152/11
f 52/153/33 11/144/33 89/154/61
f 61/155/16 13/138/16 91/156/62
f 7/157/34 16/158/33 75/159/5
f 37/160/15 17/141/15 85/161/63
f 8/162/37 19/163/22 76/164/8
f 42/165/22 26/147/22 87/166/64
f 6/167/56 29/168/15 74/169/2
f 45/170/15 37/160/15 88/171/63
f 19/163/22 34/172/22 82/173/65
f 34/172/22 42/165/22 86/174/64
f 29/168/15 45/170/15 84/175/66
f 64/176/33 52/153/33 92/177/61
f 9/151/16 49/178/16 77/179/67
f 49/178/16 61/155/16 90/180/62
f 16/158/33 64/176/33 80/181/68
f 79/140/57 74/182/2 98/183/69
f 81/143/58 75/184/5 100/185/70
f 78/146/59 76/186/8 97/187/71
f 83/149/60 73/188/11 102/189/72
f 73/152/11 77/179/67 112/190/11
f 89/191/61 78/192/59 108/193/73
f 91/194/62 79/195/57 110/196/74
f 75/159/5 80/181/68 94/197/5
f 85/198/63 81/199/58 104/200/75
f 76/164/8 82/173/65 95/201/8
f 87/202/64 83/203/60 106/204/76
f 74/169/2 84/175/66 93/205/2
f 88/206/63 85/207/63 107/208/77
f 82/209/65 86/210/64 105/211/78
f 86/210/64 87/202/64 105/211/78
f 84/212/66 88/206/63 107/208/77
f 92/213/61 89/191/61 111/214/79
f 77/215/67 90/216/62 109/217/80
f 90/216/62 91/218/62 109/217/80
f 80/219/68 92/220/61 111/214/79
f 138/221/69 133/222/2 118/1/1
f 140/223/70 134/224/5 120/4/4
f 137/225/71 135/226/8 117/7/7
f 142/227/72 152/228/11 122/10/10
f 152/229/11 136/230/81 132/19/11
f 148/231/82 137/232/71 117/233/7
f 150/234/83 138/235/69 118/236/1
f 134/237/5 139/238/84 114/36/5
f 144/239/85 140/240/70 120/241/4
f 135/242/8 141/243/86 115/41/8
f 146/244/87 142/245/72 122/246/10
f 133/247/2 143/248/88 113/68/2
f 147/249/89 144/239/85 127/250/30
f 141/251/86 145/252/90 121/253/31
f 145/252/90 146/244/87 125/254/40
f 143/255/88 147/249/89 123/256/44
f 151/257/91 148/231/82 131/258/19
f 136/259/81 149/260/92 116/261/17
f 149/260/92 150/234/83 129/262/25
f 139/263/84 151/257/91 119/264/28
f 98/183/69 93/265/2 138/221/69
f 100/185/70 94/266/5 140/223/70
f 97/187/71 95/267/8 137/225/71
f 102/189/72 112/268/11 142/227/72
f 112/190/11 96/269/81 152/229/11
f 108/193/73 97/270/71 148/231/82
f 110/196/74 98/271/69 150/234/83
f 94/197/5 99/272/84 134/237/5
f 104/200/75 100/273/70 144/239/85
f 95/201/8 101/274/86 135/242/8
f 106/204/76 102/275/72 146/244/87
f 93/205/2 103/276/88 133/247/2
f 107/208/77 104/200/75 147/249/89
f 101/277/86 105/211/78 141/251/86
f 105/211/78 106/204/76 145/252/90
f 103/278/88 107/208/77 143/255/88
f 111/214/79 108/193/73 151/257/91
f 96/279/81 109/217/80 136/259/81
f 109/217/80 110/196/74 149/260/92
f 99/280/84 111/214/79 139/263/84
f 113/2/2 2/281/45 15/3/3
f 114/5/5 3/282/29 18/6/6
f 115/8/8 4/283/21 12/9/9
f 132/11/11 1/284/18 30/12/12
f 18/14/6 3/285/29 14/15/9
f 29/17/15 6/286/56 13/18/16
f 116/20/17 10/108/3 1/21/18
f 117/7/7 12/9/9 50/23/9
f 21/25/20 12/110/9 4/26/21
f 27/28/23 9/112/16 5/29/24
f 118/1/1 15/3/3 63/31/3
f 23/13/13 14/15/9 62/33/9
f 28/16/14 13/18/16 61/35/16
f 119/37/28 14/137/9 3/38/29
f 120/4/4 18/6/6 33/40/6
f 121/42/31 20/88/12 4/43/21
f 33/45/6 18/14/6 23/13/13
f 7/47/34 17/89/15 24/48/35
f 39/50/36 21/25/20 20/24/12
f 11/52/33 22/91/49 19/53/22
f 65/287/26 69/54/38 23/56/13
f 16/46/33 24/48/35 66/58/39
f 122/10/10 30/12/12 46/60/12
f 45/62/15 29/17/15 28/16/14
f 43/64/42 27/28/23 26/27/22
f 67/288/27 71/65/43 28/67/14
f 123/69/44 25/100/6 2/70/45
f 2/72/45 25/101/6 32/73/46
f 10/75/3 31/102/51 30/76/12
f 15/71/3 32/73/46 68/78/47
f 124/39/30 33/40/6 41/80/6
f 41/82/6 33/45/6 40/44/32
f 47/84/36 39/50/36 38/49/12
f 48/86/32 40/289/32 69/54/38
f 125/87/40 38/96/12 20/88/12
f 17/89/15 37/97/15 36/90/41
f 22/91/49 35/98/42 34/92/22
f 24/94/35 36/99/41 70/95/50
f 126/59/40 46/60/12 38/96/12
f 37/97/15 45/62/15 44/61/41
f 35/98/42 43/64/42 42/63/22
f 36/99/41 44/290/41 71/65/43
f 127/79/30 41/80/6 25/100/6
f 25/101/6 41/82/6 48/81/32
f 31/102/51 47/84/36 46/83/12
f 32/104/46 48/291/32 72/85/48
f 128/22/19 50/23/9 62/106/9
f 129/107/25 51/129/3 10/108/3
f 53/109/26 50/130/9 12/110/9
f 55/111/27 49/131/16 9/112/16
f 57/114/52 53/292/26 21/115/20
f 52/116/33 54/133/39 22/91/49
f 59/118/53 55/293/27 27/119/23
f 51/120/3 56/135/47 31/102/51
f 60/122/54 57/114/52 39/113/36
f 35/294/42 22/123/49 58/125/55
f 58/125/55 59/118/53 43/117/42
f 47/295/36 31/127/51 60/122/54
f 130/30/25 63/31/3 51/129/3
f 65/32/26 62/33/9 50/130/9
f 67/34/27 61/35/16 49/131/16
f 69/54/38 65/287/26 53/132/26
f 64/57/33 66/58/39 54/133/39
f 71/65/43 67/288/27 55/134/27
f 63/77/3 68/78/47 56/135/47
f 72/85/48 69/54/38 57/114/52
f 66/136/39 70/95/50 58/125/55
f 70/95/50 71/65/43 59/118/53
f 68/103/47 72/85/48 60/122/54
f 131/105/19 62/106/9 14/137/9
f 6/139/56 74/182/2 79/140/57
f 7/142/34 75/184/5 81/143/58
f 8/145/37 76/186/8 78/146/59
f 5/148/24 73/188/11 83/149/60
f 9/151/16 77/179/67 73/152/11
f 11/144/33 78/146/59 89/154/61
f 13/138/16 79/140/57 91/156/62
f 16/158/33 80/181/68 75/159/5
f 17/141/15 81/143/58 85/161/63
f 19/163/22 82/173/65 76/164/8
f 26/147/22 83/149/60 87/166/64
f 29/168/15 84/175/66 74/169/2
f 37/160/15 85/161/63 88/171/63
f 34/172/22 86/174/64 82/173/65
f 42/165/22 87/166/64 86/174/64
f 45/170/15 88/171/63 84/175/66
f 52/153/33 89/154/61 92/177/61
f 49/178/16 90/180/62 77/179/67
f 61/155/16 91/156/62 90/180/62
f 64/176/33 92/177/61 80/181/68
f 74/182/2 93/265/2 98/183/69
f 75/184/5 94/266/5 100/185/70
f 76/186/8 95/267/8 97/187/71
f 73/188/11 112/268/11 102/189/72
f 77/179/67 96/269/81 112/190/11
f 78/192/59 97/296/71 108/193/73
f 79/195/57 98/271/69 110/196/74
f 80/181/68 99/272/84 94/197/5
f 81/199/58 100/273/70 104/200/75
f 82/173/65 101/274/86 95/201/8
f 83/203/60 102/297/72 106/204/76
f 84/175/66 103/276/88 93/205/2
f 85/207/63 104/200/75 107/208/77
f 101/298/86 82/209/65 105/211/78
f 87/202/64 106/204/76 105/211/78
f 103/299/88 84/212/66 107/208/77
f 89/191/61 108/193/73 111/214/79
f 96/300/81 77/215/67 109/217/80
f 91/218/62 110/196/74 109/217/80
f 99/280/84 80/219/68 111/214/79
f 133/222/2 113/2/2 118/1/1
f 134/224/5 114/5/5 120/4/4
f 135/226/8 115/8/8 117/7/7
f 152/228/11 132/11/11 122/10/10
f 136/230/81 116/20/17 132/19/11
f 128/301/19 148/231/82 117/233/7
f 130/302/25 150/234/83 118/236/1
f 139/238/84 119/37/28 114/36/5
f 124/303/30 144/239/85 120/241/4
f 141/243/86 121/42/31 115/41/8
f 126/304/40 146/244/87 122/246/10
f 143/248/88 123/69/44 113/68/2
f 144/239/85 124/303/30 127/250/30
f 145/252/90 125/305/40 121/253/31
f 146/244/87 126/306/40 125/254/40
f 147/249/89 127/307/30 123/256/44
f 148/231/82 128/308/19 131/258/19
f 149/260/92 129/309/25 116/261/17
f 150/234/83 130/310/25 129/262/25
f 151/257/91 131/311/19 119/264/28
f 93/265/2 133/222/2 138/221/69
f 94/266/5 134/224/5 140/223/70
f 95/267/8 135/226/8 137/225/71
f 112/268/11 152/228/11 142/227/72
f 96/269/81 136/230/81 152/229/11
f 97/270/71 137/232/71 148/231/82
f 98/271/69 138/235/69 150/234/83
f 99/272/84 139/238/84 134/237/5
f 100/273/70 140/312/70 144/239/85
f 101/274/86 141/243/86 135/242/8
f 102/275/72 142/245/72 146/244/87
f 103/276/88 143/248/88 133/247/2
f 104/200/75 144/239/85 147/249/89
f 105/211/78 145/252/90 141/251/86
f 106/204/76 146/244/87 145/252/90
f 107/208/77 147/249/89 143/255/88
f 108/193/73 148/231/82 151/257/91
f 109/217/80 149/260/92 136/259/81
f 110/196/74 150/234/83 149/260/92
f 111/214/79 151/257/91 139/263/84
