# Blender v2.69 (sub 0) OBJ File: 'mur.blend'
# www.blender.org
mtllib wall.mtl
o Cube
v 1.000000 -1.000000 -1.000000
v 1.000000 -1.000000 1.000000
v -1.000000 -1.000000 1.000000
v -1.000000 -1.000000 -1.000000
v 1.000000 1.000000 -0.999999
v 0.999999 1.000000 1.000001
v -1.000000 1.000000 1.000000
v -1.000000 1.000000 -1.000000
v 1.020000 -1.000000 -1.020000
v 1.020000 -1.000000 1.020000
v -1.020000 -1.000000 1.020000
v -1.020000 -1.000000 -1.020000
v 1.020000 1.000000 -1.020000
v 1.019999 1.000000 1.020001
v -1.020000 1.000000 1.020000
v -1.020000 1.000000 -1.020000
vt 0.962716 0.023251
vt 0.962716 0.941408
vt 0.026196 0.023252
vt 0.958154 0.030404
vt 0.958154 0.948561
vt 0.021635 0.030404
vt 0.962680 0.038914
vt 0.962679 0.957071
vt 0.044523 0.038915
vt 0.951676 0.038914
vt 0.951676 0.957071
vt 0.033519 0.038914
vt 0.036623 0.945187
vt 0.036623 0.027030
vt 0.954780 0.945187
vt 0.950795 0.038914
vt 0.950795 0.957071
vt 0.032638 0.038915
vt 0.029264 0.952816
vt 0.029264 0.034659
vt 0.965784 0.952816
vt 0.958425 0.042289
vt 0.958425 0.960446
vt 0.021904 0.042289
vt 0.165504 0.525827
vt 0.854433 0.525736
vt 0.158694 0.537972
vt 2.591726 -1.774644
vt 1.902801 -1.774554
vt 2.598541 -1.786790
vt 0.170791 0.524111
vt 0.158694 0.511829
vt 0.857078 0.524019
vt 0.165508 0.539688
vt 0.854436 0.539597
vt 0.158694 0.551833
vt 1.902664 -1.746740
vt 1.890566 -1.759022
vt 2.588951 -1.746831
vt 1.897381 -1.800560
vt 2.586307 -1.800651
vt 1.890566 -1.788415
vt 2.583834 -1.772929
vt 2.595932 -1.760647
vt 1.897548 -1.772838
vt 0.170791 0.510204
vt 0.158694 0.497921
vt 0.857078 0.510112
vt 0.026196 0.941408
vt 0.021635 0.948561
vt 0.044523 0.957071
vt 0.033519 0.957072
vt 0.954780 0.027030
vt 0.032638 0.957072
vt 0.965784 0.034659
vt 0.021905 0.960446
vt 0.866669 0.537971
vt 1.890566 -1.786790
vt 0.864060 0.511829
vt 0.866671 0.551832
vt 2.595933 -1.759022
vt 2.598542 -1.788415
vt 1.890566 -1.760647
vt 0.864060 0.497921
vn 1.000000 -0.000000 0.000000
vn 0.000000 -0.000000 1.000000
vn -1.000000 -0.000000 -0.000000
vn 0.000000 0.000000 -1.000000
vn 0.000000 -1.000000 0.000000
vn 0.000000 1.000000 0.000000
vn 1.000000 0.000000 0.000001
usemtl Material
s off
f 9/1/1 13/2/1 10/3/1
f 10/4/2 14/5/2 11/6/2
f 1/7/1 5/8/1 2/9/1
f 2/10/2 6/11/2 3/12/2
f 3/13/3 7/14/3 4/15/3
f 5/16/4 1/17/4 8/18/4
f 11/19/3 15/20/3 12/21/3
f 13/22/4 9/23/4 16/24/4
f 6/25/5 5/26/5 14/27/5
f 8/28/5 7/29/5 16/30/5
f 8/31/5 16/32/5 5/33/5
f 7/34/5 6/35/5 15/36/5
f 2/37/6 10/38/6 1/39/6
f 4/40/6 1/41/6 12/42/6
f 4/43/6 12/44/6 3/45/6
f 3/46/6 11/47/6 2/48/6
f 13/2/7 14/49/7 10/3/7
f 14/5/2 15/50/2 11/6/2
f 5/8/7 6/51/7 2/9/7
f 6/11/2 7/52/2 3/12/2
f 7/14/3 8/53/3 4/15/3
f 1/17/4 4/54/4 8/18/4
f 15/20/3 16/55/3 12/21/3
f 9/23/4 12/56/4 16/24/4
f 5/26/5 13/57/5 14/27/5
f 7/29/5 15/58/5 16/30/5
f 16/32/5 13/59/5 5/33/5
f 6/35/5 14/60/5 15/36/5
f 10/38/6 9/61/6 1/39/6
f 1/41/6 9/62/6 12/42/6
f 12/44/6 11/63/6 3/45/6
f 11/47/6 10/64/6 2/48/6
